<?xml version="1.0" encoding="utf-8"?>
<!-- Generator: Adobe Illustrator 26.3.1, SVG Export Plug-In . SVG Version: 6.00 Build 0)  -->
<svg version="1.1" id="Laag_1" xmlns="http://www.w3.org/2000/svg" xmlns:xlink="http://www.w3.org/1999/xlink" x="0px" y="0px"
	 viewBox="0 0 850.39 283.46" style="enable-background:new 0 0 850.39 283.46;" xml:space="preserve">
<style type="text/css">
	.st0{fill:#1E1E1C;}
</style>
<path class="st0" d="M187.22,14.9h34.72v142.96h-34.72V14.9z"/>
<path class="st0" d="M450.91,78.82v79.04H421.3v-20.02c-6.33,12.66-22.46,22.67-44.93,22.67c-39.42,0-70.67-30.83-70.67-73.72
	c0-42.88,31.25-74.55,74.13-74.55c35.13,0,61.88,21.24,69.64,51.26h-37.17c-5.72-11.44-17.36-18.18-32.47-18.18
	c-23.69,0-39.01,16.75-39.01,41.86c0,22.88,12.66,41.26,38.19,41.26c15.73,0,29.2-6.95,34.92-20.63h-42.48v-29H450.91z"/>
<path class="st0" d="M844.97,14.9v142.96h-39.42l-53.71-90.07l2.86,30.23v59.84h-34.72V14.9h39.42l53.51,90.06l-2.65-30.23V14.9
	H844.97z"/>
<g>
	<rect x="40.75" y="124.77" class="st0" width="63.72" height="33.09"/>
	<polygon class="st0" points="104.46,47.98 104.46,14.9 6.03,14.9 6.03,124.77 40.75,124.77 40.75,102.31 98.75,102.31 98.75,69.22 
		40.75,69.22 40.75,47.98 	"/>
</g>
<g>
	<path class="st0" d="M36.67,243.14c0,8.59-5.47,14.68-12.99,14.68c-4.4,0-7.77-2.15-9.82-5.32v4.7H8.09v-39.37h5.78v16.06
		c2.04-3.22,5.42-5.42,9.87-5.42C31.1,228.46,36.67,234.54,36.67,243.14z M30.84,243.14c0-5.37-3.48-9.15-8.39-9.15
		c-4.91,0-8.64,3.78-8.64,9.15c0,5.42,3.73,9.15,8.64,9.15C27.31,252.29,30.84,248.56,30.84,243.14z"/>
	<path class="st0" d="M59.33,228.61v5.88c-0.51-0.05-0.97-0.1-1.74-0.1c-5.27,0-9.31,2.97-9.31,9.92v12.88h-5.78v-28.12h5.78v5.57
		c1.69-3.94,4.91-6.19,9.36-6.19C58.36,228.46,58.92,228.51,59.33,228.61z"/>
	<path class="st0" d="M91.4,229.07v28.12h-5.78v-4.7c-2.04,3.22-5.42,5.32-9.82,5.32c-7.52,0-12.99-6.09-12.99-14.68
		c0-8.59,5.57-14.68,12.94-14.68c4.45,0,7.82,2.2,9.87,5.42v-4.81H91.4z M85.67,243.14c0-5.37-3.73-9.15-8.64-9.15
		c-4.91,0-8.39,3.78-8.39,9.15c0,5.42,3.53,9.15,8.39,9.15C81.94,252.29,85.67,248.56,85.67,243.14z"/>
	<path class="st0" d="M123.47,239.45v17.74h-5.78v-16.57c0-4.35-1.89-6.65-6.14-6.65c-4.96,0-7.62,3.22-7.62,8.64v14.57h-5.78
		v-28.12h5.78v4.65c1.99-3.27,5.01-5.27,9.41-5.27C119.68,228.46,123.47,232.6,123.47,239.45z"/>
	<path class="st0" d="M157.99,217.82v39.37h-5.78v-4.7c-2.1,3.17-5.47,5.32-9.87,5.32c-7.52,0-12.99-6.09-12.99-14.68
		c0-8.59,5.57-14.68,12.94-14.68c4.45,0,7.82,2.2,9.92,5.42v-16.06H157.99z M152.21,243.14c0-5.37-3.73-9.15-8.64-9.15
		c-4.91,0-8.39,3.78-8.39,9.15c0,5.42,3.53,9.15,8.39,9.15C148.48,252.29,152.21,248.56,152.21,243.14z"/>
	<path class="st0" d="M171.35,219.92c0,2.1-1.59,3.63-3.78,3.63c-2.1,0-3.73-1.53-3.73-3.63c0-2.05,1.64-3.53,3.73-3.53
		C169.76,216.39,171.35,217.87,171.35,219.92z M164.7,229.07h5.78v28.12h-5.78V229.07z"/>
	<path class="st0" d="M202.49,239.45v17.74h-5.78v-16.57c0-4.35-1.89-6.65-6.14-6.65c-4.96,0-7.62,3.22-7.62,8.64v14.57h-5.78
		v-28.12h5.78v4.65c1.99-3.27,5.01-5.27,9.41-5.27C198.7,228.46,202.49,232.6,202.49,239.45z"/>
	<path class="st0" d="M236.65,229.07v27.77c0,8.39-5.27,13.75-13.6,13.75c-6.7,0-12.78-3.48-14.01-10.48h5.98
		c0.97,3.63,4.09,5.32,7.88,5.32c5.16,0,7.98-2.91,7.98-8.39v-4.81c-2.1,3.12-5.47,5.27-9.82,5.27c-7.52,0-12.99-6.08-12.99-14.52
		s5.57-14.52,12.99-14.52c4.35,0,7.77,2.2,9.82,5.42v-4.81H236.65z M230.93,242.98c0-5.21-3.73-9-8.64-9c-4.91,0-8.39,3.78-8.39,9
		c0,5.27,3.53,9,8.39,9C227.19,251.98,230.93,248.25,230.93,242.98z"/>
	<path class="st0" d="M286.42,229.07v28.12h-5.78v-4.7c-2.04,3.22-5.42,5.32-9.82,5.32c-7.52,0-12.99-6.09-12.99-14.68
		c0-8.59,5.57-14.68,12.94-14.68c4.45,0,7.82,2.2,9.87,5.42v-4.81H286.42z M280.69,243.14c0-5.37-3.73-9.15-8.64-9.15
		c-4.91,0-8.39,3.78-8.39,9.15c0,5.42,3.53,9.15,8.39,9.15C276.96,252.29,280.69,248.56,280.69,243.14z"/>
	<path class="st0" d="M320.84,229.07v27.77c0,8.39-5.27,13.75-13.6,13.75c-6.7,0-12.78-3.48-14.01-10.48h5.98
		c0.97,3.63,4.09,5.32,7.88,5.32c5.16,0,7.98-2.91,7.98-8.39v-4.81c-2.1,3.12-5.47,5.27-9.82,5.27c-7.52,0-12.99-6.08-12.99-14.52
		s5.57-14.52,12.99-14.52c4.35,0,7.77,2.2,9.82,5.42v-4.81H320.84z M315.11,242.98c0-5.21-3.73-9-8.64-9c-4.91,0-8.39,3.78-8.39,9
		c0,5.27,3.53,9,8.39,9C311.38,251.98,315.11,248.25,315.11,242.98z"/>
	<path class="st0" d="M355.42,244.72h-22.86c0.46,5.16,4.09,8.03,8.8,8.03c3.37,0,6.19-1.43,7.52-4.19h5.98
		c-2.2,6.29-7.57,9.26-13.55,9.26c-8.54,0-14.62-6.14-14.62-14.63c0-8.49,6.03-14.73,14.52-14.73
		C350.25,228.46,355.98,235.47,355.42,244.72z M332.87,240.02h16.36c-0.87-3.83-3.78-6.55-8.03-6.55
		C336.8,233.47,333.84,236.23,332.87,240.02z"/>
	<path class="st0" d="M386.36,239.45v17.74h-5.78v-16.57c0-4.35-1.89-6.65-6.14-6.65c-4.96,0-7.62,3.22-7.62,8.64v14.57h-5.78
		v-28.12h5.78v4.65c1.99-3.27,5.01-5.27,9.41-5.27C382.58,228.46,386.36,232.6,386.36,239.45z"/>
	<path class="st0" d="M391.94,243.14c0-8.39,6.24-14.68,14.62-14.68c6.65,0,12.53,4.04,13.81,10.84h-5.98
		c-1.07-3.53-4.19-5.47-7.82-5.47c-5.21,0-8.79,3.89-8.79,9.31c0,5.47,3.68,9.31,8.74,9.31c3.68,0,6.8-2.04,7.88-5.52h5.98
		c-1.33,6.95-7.26,10.89-13.86,10.89C398.18,257.81,391.94,251.52,391.94,243.14z"/>
	<path class="st0" d="M450.91,229.07l-18.61,40.91h-6.19l7.41-16.36l-11.1-24.54h6.19l7.98,18.31l8.13-18.31H450.91z"/>
</g>
<g>
	<polygon class="st0" points="539.81,47.98 539.81,157.86 638.25,157.86 638.25,124.77 574.52,124.77 574.52,102.31 632.53,102.31 
		632.53,69.22 574.52,69.22 574.52,47.98 	"/>
	<rect x="574.52" y="14.9" class="st0" width="63.72" height="33.08"/>
</g>
</svg>
