<?xml version="1.0" encoding="utf-8"?>
<!-- Generator: Adobe Illustrator 26.3.1, SVG Export Plug-In . SVG Version: 6.00 Build 0)  -->
<svg version="1.1" id="Laag_1" xmlns="http://www.w3.org/2000/svg" xmlns:xlink="http://www.w3.org/1999/xlink" x="0px" y="0px"
	 viewBox="0 0 850.39 850.39" style="enable-background:new 0 0 850.39 850.39;" xml:space="preserve">
<style type="text/css">
	.st0{fill:#1E1E1C;}
</style>
<g>
	<path class="st0" d="M198.58,357.22h33.02v135.96h-33.02V357.22z"/>
	<path class="st0" d="M449.37,418.01v75.17H421.2v-19.04c-6.02,12.04-21.36,21.56-42.73,21.56c-37.49,0-67.21-29.32-67.21-70.12
		c0-40.79,29.72-70.9,70.51-70.9c33.41,0,58.86,20.2,66.23,48.75h-35.35c-5.44-10.88-16.51-17.29-30.88-17.29
		c-22.53,0-37.1,15.93-37.1,39.82c0,21.76,12.04,39.24,36.32,39.24c14.96,0,27.77-6.61,33.21-19.62h-40.4v-27.58H449.37z"/>
	<path class="st0" d="M824.14,357.22v135.96h-37.49l-51.08-85.66l2.72,28.75v56.91h-33.02V357.22h37.49l50.89,85.65l-2.52-28.75
		v-56.91H824.14z"/>
	<g>
		<rect x="59.28" y="461.71" class="st0" width="60.6" height="31.47"/>
		<polygon class="st0" points="119.88,388.68 119.88,357.22 26.26,357.22 26.26,461.71 59.28,461.71 59.28,440.35 114.44,440.35 
			114.44,408.88 59.28,408.88 59.28,388.68 		"/>
	</g>
	<g>
		<polygon class="st0" points="533.91,388.68 533.91,493.18 627.53,493.18 627.53,461.71 566.93,461.71 566.93,440.35 
			622.09,440.35 622.09,408.88 566.93,408.88 566.93,388.68 		"/>
		<rect x="566.93" y="357.22" class="st0" width="60.6" height="31.46"/>
	</g>
</g>
</svg>
