<?xml version="1.0" encoding="utf-8"?>
<!-- Generator: Adobe Illustrator 26.3.1, SVG Export Plug-In . SVG Version: 6.00 Build 0)  -->
<svg version="1.1" id="Laag_1" xmlns="http://www.w3.org/2000/svg" xmlns:xlink="http://www.w3.org/1999/xlink" x="0px" y="0px"
	 viewBox="0 0 850.39 850.39" style="enable-background:new 0 0 850.39 850.39;" xml:space="preserve">
<style type="text/css">
	.st0{fill:#1E1E1C;}
</style>
<g>
	<path class="st0" d="M198.58,304.87h33.02v135.96h-33.02V304.87z"/>
	<path class="st0" d="M449.37,365.66v75.17H421.2V421.8c-6.02,12.04-21.36,21.56-42.73,21.56c-37.49,0-67.21-29.32-67.21-70.12
		c0-40.79,29.72-70.9,70.51-70.9c33.41,0,58.86,20.2,66.23,48.75h-35.35c-5.44-10.88-16.51-17.29-30.88-17.29
		c-22.53,0-37.1,15.93-37.1,39.82c0,21.76,12.04,39.24,36.32,39.24c14.96,0,27.77-6.61,33.21-19.62h-40.4v-27.58H449.37z"/>
	<path class="st0" d="M824.14,304.87v135.96h-37.49l-51.08-85.66l2.72,28.75v56.91h-33.02V304.87h37.49l50.89,85.65l-2.52-28.75
		v-56.91H824.14z"/>
	<g>
		<rect x="59.28" y="409.37" class="st0" width="60.6" height="31.47"/>
		<polygon class="st0" points="119.88,336.33 119.88,304.87 26.26,304.87 26.26,409.37 59.28,409.37 59.28,388 114.44,388 
			114.44,356.54 59.28,356.54 59.28,336.33 		"/>
	</g>
	<g>
		<path class="st0" d="M55.4,521.94c0,8.17-5.2,13.96-12.35,13.96c-4.18,0-7.39-2.04-9.34-5.06v4.47h-5.5v-37.45h5.5v15.27
			c1.94-3.06,5.16-5.16,9.38-5.16C50.1,507.98,55.4,513.77,55.4,521.94z M49.86,521.94c0-5.11-3.31-8.71-7.98-8.71
			c-4.67,0-8.22,3.6-8.22,8.71c0,5.16,3.55,8.7,8.22,8.7C46.5,530.64,49.86,527.09,49.86,521.94z"/>
		<path class="st0" d="M76.95,508.13v5.59c-0.49-0.05-0.92-0.1-1.65-0.1c-5.01,0-8.85,2.82-8.85,9.44v12.25h-5.5v-26.75h5.5v5.3
			c1.6-3.74,4.67-5.88,8.9-5.88C76.03,507.98,76.56,508.03,76.95,508.13z"/>
		<path class="st0" d="M107.45,508.56v26.75h-5.5v-4.47c-1.94,3.06-5.15,5.06-9.34,5.06c-7.15,0-12.35-5.79-12.35-13.96
			c0-8.17,5.3-13.96,12.3-13.96c4.23,0,7.44,2.09,9.38,5.16v-4.57H107.45z M102,521.94c0-5.11-3.55-8.71-8.22-8.71
			c-4.67,0-7.98,3.6-7.98,8.71c0,5.16,3.36,8.7,7.98,8.7C98.45,530.64,102,527.09,102,521.94z"/>
		<path class="st0" d="M137.95,518.44v16.87h-5.49v-15.76c0-4.13-1.8-6.32-5.84-6.32c-4.72,0-7.25,3.06-7.25,8.22v13.86h-5.5v-26.75
			h5.5v4.42c1.9-3.11,4.76-5.01,8.95-5.01C134.35,507.98,137.95,511.92,137.95,518.44z"/>
		<path class="st0" d="M170.78,497.86v37.45h-5.49v-4.47c-1.99,3.02-5.2,5.06-9.39,5.06c-7.15,0-12.35-5.79-12.35-13.96
			c0-8.17,5.3-13.96,12.3-13.96c4.23,0,7.44,2.09,9.43,5.16v-15.27H170.78z M165.29,521.94c0-5.11-3.55-8.71-8.22-8.71
			c-4.67,0-7.98,3.6-7.98,8.71c0,5.16,3.36,8.7,7.98,8.7C161.74,530.64,165.29,527.09,165.29,521.94z"/>
		<path class="st0" d="M183.48,499.86c0,1.99-1.51,3.45-3.6,3.45c-1.99,0-3.55-1.46-3.55-3.45c0-1.95,1.56-3.36,3.55-3.36
			C181.98,496.5,183.48,497.91,183.48,499.86z M177.16,508.56h5.5v26.75h-5.5V508.56z"/>
		<path class="st0" d="M213.1,518.44v16.87h-5.49v-15.76c0-4.13-1.8-6.32-5.84-6.32c-4.72,0-7.25,3.06-7.25,8.22v13.86h-5.5v-26.75
			h5.5v4.42c1.9-3.11,4.76-5.01,8.95-5.01C209.5,507.98,213.1,511.92,213.1,518.44z"/>
		<path class="st0" d="M245.6,508.56v26.41c0,7.98-5.01,13.08-12.94,13.08c-6.37,0-12.16-3.31-13.32-9.97h5.69
			c0.92,3.45,3.89,5.06,7.49,5.06c4.91,0,7.58-2.77,7.58-7.98v-4.57c-1.99,2.97-5.2,5.01-9.34,5.01c-7.15,0-12.35-5.79-12.35-13.81
			c0-8.02,5.3-13.81,12.35-13.81c4.13,0,7.39,2.09,9.34,5.16v-4.57H245.6z M240.15,521.79c0-4.96-3.55-8.56-8.22-8.56
			c-4.67,0-7.98,3.6-7.98,8.56c0,5.01,3.36,8.56,7.98,8.56C236.6,530.35,240.15,526.8,240.15,521.79z"/>
		<path class="st0" d="M292.93,508.56v26.75h-5.5v-4.47c-1.94,3.06-5.15,5.06-9.34,5.06c-7.15,0-12.35-5.79-12.35-13.96
			c0-8.17,5.3-13.96,12.3-13.96c4.23,0,7.44,2.09,9.38,5.16v-4.57H292.93z M287.48,521.94c0-5.11-3.55-8.71-8.22-8.71
			c-4.67,0-7.98,3.6-7.98,8.71c0,5.16,3.36,8.7,7.98,8.7C283.93,530.64,287.48,527.09,287.48,521.94z"/>
		<path class="st0" d="M325.66,508.56v26.41c0,7.98-5.01,13.08-12.94,13.08c-6.37,0-12.16-3.31-13.32-9.97h5.69
			c0.92,3.45,3.89,5.06,7.49,5.06c4.91,0,7.58-2.77,7.58-7.98v-4.57c-1.99,2.97-5.2,5.01-9.34,5.01c-7.15,0-12.35-5.79-12.35-13.81
			c0-8.02,5.3-13.81,12.35-13.81c4.13,0,7.39,2.09,9.34,5.16v-4.57H325.66z M320.22,521.79c0-4.96-3.55-8.56-8.22-8.56
			c-4.67,0-7.98,3.6-7.98,8.56c0,5.01,3.36,8.56,7.98,8.56C316.67,530.35,320.22,526.8,320.22,521.79z"/>
		<path class="st0" d="M358.55,523.44h-21.74c0.44,4.91,3.89,7.63,8.37,7.63c3.21,0,5.88-1.36,7.15-3.99h5.69
			c-2.09,5.98-7.2,8.8-12.89,8.8c-8.12,0-13.91-5.84-13.91-13.91c0-8.07,5.74-14,13.81-14
			C353.63,507.98,359.08,514.64,358.55,523.44z M337.1,518.97h15.56c-0.83-3.65-3.6-6.22-7.63-6.22
			C340.85,512.75,338.02,515.37,337.1,518.97z"/>
		<path class="st0" d="M387.98,518.44v16.87h-5.49v-15.76c0-4.13-1.8-6.32-5.84-6.32c-4.72,0-7.25,3.06-7.25,8.22v13.86h-5.5v-26.75
			h5.5v4.42c1.9-3.11,4.76-5.01,8.95-5.01C384.38,507.98,387.98,511.92,387.98,518.44z"/>
		<path class="st0" d="M393.29,521.94c0-7.98,5.93-13.96,13.91-13.96c6.32,0,11.91,3.84,13.13,10.31h-5.69
			c-1.02-3.36-3.99-5.2-7.44-5.2c-4.96,0-8.36,3.7-8.36,8.85c0,5.2,3.5,8.85,8.31,8.85c3.5,0,6.47-1.94,7.49-5.25h5.69
			c-1.26,6.61-6.91,10.36-13.18,10.36C399.22,535.89,393.29,529.91,393.29,521.94z"/>
		<path class="st0" d="M449.37,508.56l-17.7,38.9h-5.88l7.05-15.56l-10.55-23.34h5.89l7.59,17.41l7.73-17.41H449.37z"/>
	</g>
	<g>
		<polygon class="st0" points="533.91,336.33 533.91,440.83 627.53,440.83 627.53,409.37 566.93,409.37 566.93,388 622.09,388 
			622.09,356.54 566.93,356.54 566.93,336.33 		"/>
		<rect x="566.93" y="304.87" class="st0" width="60.6" height="31.46"/>
	</g>
</g>
</svg>
