<?xml version="1.0" encoding="utf-8"?>
<!-- Generator: Adobe Illustrator 26.3.1, SVG Export Plug-In . SVG Version: 6.00 Build 0)  -->
<svg version="1.1" id="Laag_1" xmlns="http://www.w3.org/2000/svg" xmlns:xlink="http://www.w3.org/1999/xlink" x="0px" y="0px"
	 viewBox="0 0 850.39 283.46" style="enable-background:new 0 0 850.39 283.46;" xml:space="preserve">
<style type="text/css">
	.st0{fill:#1E1E1C;}
</style>
<g>
	<path class="st0" d="M187.22,70.25h34.72v142.96h-34.72V70.25z"/>
	<path class="st0" d="M450.91,134.18v79.04H421.3V193.2c-6.33,12.66-22.46,22.67-44.93,22.67c-39.42,0-70.67-30.83-70.67-73.72
		c0-42.88,31.25-74.55,74.13-74.55c35.13,0,61.88,21.24,69.64,51.26h-37.17c-5.72-11.44-17.36-18.18-32.47-18.18
		c-23.69,0-39.01,16.75-39.01,41.86c0,22.88,12.66,41.26,38.19,41.26c15.73,0,29.2-6.95,34.92-20.63h-42.48v-29H450.91z"/>
	<path class="st0" d="M844.97,70.25v142.96h-39.42l-53.71-90.07l2.86,30.23v59.84h-34.72V70.25h39.42l53.51,90.06l-2.65-30.23V70.25
		H844.97z"/>
	<g>
		<rect x="40.75" y="180.12" class="st0" width="63.72" height="33.09"/>
		<polygon class="st0" points="104.46,103.33 104.46,70.25 6.03,70.25 6.03,180.12 40.75,180.12 40.75,157.66 98.75,157.66 
			98.75,124.58 40.75,124.58 40.75,103.33 		"/>
	</g>
	<g>
		<polygon class="st0" points="539.81,103.33 539.81,213.21 638.25,213.21 638.25,180.12 574.52,180.12 574.52,157.66 
			632.53,157.66 632.53,124.58 574.52,124.58 574.52,103.33 		"/>
		<rect x="574.52" y="70.25" class="st0" width="63.72" height="33.08"/>
	</g>
</g>
</svg>
